<?xml version="1.0" standalone="no"?><!DOCTYPE svg PUBLIC "-//W3C//DTD SVG 1.1//EN" "http://www.w3.org/Graphics/SVG/1.1/DTD/svg11.dtd"><svg t="1668914666228" class="icon" viewBox="0 0 1024 1024" version="1.1" xmlns="http://www.w3.org/2000/svg" p-id="1147" xmlns:xlink="http://www.w3.org/1999/xlink" width="200" height="200"><path d="M544 565.333a74.667 74.667 0 0 1 74.41 68.523l0.257 6.144v149.333h-64V640a10.667 10.667 0 0 0-8.235-10.368l-2.432-0.299h-64a10.667 10.667 0 0 0-10.368 8.235l-0.299 2.432v149.333h-64V640a74.667 74.667 0 0 1 68.523-74.41l6.144-0.257h64z" fill="#946ce6" p-id="1148"></path><path d="M449.877 214.357l-150.613 93.995A160 160 0 0 0 224 444.075v281.258a117.333 117.333 0 0 0 117.333 117.334h341.334A117.333 117.333 0 0 0 800 725.333V444.075a160 160 0 0 0-75.307-135.723L574.08 214.357a117.333 117.333 0 0 0-124.16 0z m90.368 54.315l150.614 93.952A96 96 0 0 1 736 444.117v281.216c0 29.44-23.893 53.334-53.333 53.334H341.333c-29.44 0-53.333-23.894-53.333-53.334V444.075c0-33.11 17.067-63.915 45.184-81.451l150.613-93.952a53.333 53.333 0 0 1 56.448 0z" fill="#333333" p-id="1149"></path></svg>