<?xml version="1.0" standalone="no"?><!DOCTYPE svg PUBLIC "-//W3C//DTD SVG 1.1//EN" "http://www.w3.org/Graphics/SVG/1.1/DTD/svg11.dtd"><svg t="1668914691768" class="icon" viewBox="0 0 1024 1024" version="1.1" xmlns="http://www.w3.org/2000/svg" p-id="1447" xmlns:xlink="http://www.w3.org/1999/xlink" width="200" height="200"><path d="M761.6 170.752c38.4 0 72.533 29.867 72.533 72.533 0 12.8-4.266 29.867-12.8 42.667l-4.266 4.267-196.267 204.8c-12.8 12.8-34.133 12.8-46.933 0-12.8-12.8-12.8-29.867-4.267-42.667l4.267-4.267 196.266-204.8v-4.266c0-4.267 0-4.267-4.266-8.534H245.333c-4.266 0-4.266 4.267-4.266 8.534l196.266 204.8c21.334 25.6 29.867 46.933 34.134 68.266v268.8l76.8 29.867c17.066 4.267 25.6 25.6 17.066 42.667-4.266 17.066-21.333 21.333-38.4 21.333h-4.266l-76.8-29.867c-25.6-8.533-42.667-34.133-42.667-59.733V520.619c0-8.534-4.267-17.067-8.533-25.6L198.4 285.952c-25.6-25.6-21.333-72.533 8.533-98.133 8.534-8.534 25.6-17.067 38.4-17.067H761.6z" fill="#333333" p-id="1448"></path><path d="M727.467 537.685c17.066 0 34.133 12.8 34.133 34.134 0 17.066-12.8 29.866-25.6 29.866H603.733c-21.333 0-38.4-12.8-38.4-29.866 0-17.067 12.8-29.867 29.867-34.134h132.267zM684.8 635.82c17.067 0 34.133 12.8 34.133 34.133 0 17.067-12.8 29.867-25.6 29.867h-89.6c-17.066 0-34.133-12.8-34.133-34.134 0-17.066 12.8-29.866 25.6-29.866h89.6z m-21.333 98.133c17.066 0 34.133 12.8 34.133 34.133 0 17.067-12.8 29.867-25.6 29.867h-72.533c-17.067 0-34.134-12.8-34.134-34.133 0-17.067 12.8-29.867 25.6-29.867h72.534z" fill="#946ce6" p-id="1449"></path></svg>